simulation
nRows=55
nColumns=15
endheader
time  TH_x TH_y TH_z SC_y  SC_z  SC_x  AC_y  AC_z  AC_x  GH_y  GH_z  GH_yy  EL_x  PS_y
0.249822  0.000000  0.000000  0.000000  -12.847311  -2.234760  4.612913  62.796379  30.373489  -4.172482  32.928115  38.462809  -5.008356  16.228741  120.012692
0.250178  0.000000  0.000000  0.000000  -18.216057  -4.672499  4.612913  47.015200  0.132845  -12.017756  27.330601  26.855022  -21.700860  14.008017  133.431074
0.250534  0.000000  0.000000  0.000000  -44.859673  -18.878188  4.612913  58.659978  -11.384330  -6.917433  36.240361  34.184785  -18.892118  22.189852  123.359215
0.250890  0.000000  0.000000  0.000000  -42.310030  3.564116  4.612913  55.085683  -2.538551  3.456198  28.028919  34.079684  -5.102559  29.877114  115.969261
0.251246  0.000000  0.000000  0.000000  -16.784728  -6.670980  4.612913  48.507702  -15.901906  -6.727495  26.473879  34.107779  -6.401040  21.892615  132.318129
0.251601  0.000000  0.000000  0.000000  -34.422666  -13.183356  4.612913  63.090518  -2.536385  2.449954  20.499768  37.078652  -9.812767  17.107630  129.182914
0.251957  0.000000  0.000000  0.000000  -24.489722  1.886956  4.612913  52.544521  -6.434127  -6.946401  17.826956  35.196981  -6.415099  24.310368  121.964460
0.252313  0.000000  0.000000  0.000000  -45.184043  5.643279  4.612913  54.117800  -1.816157  0.952725  22.632501  23.301235  -19.129931  13.736444  133.506036
0.252669  0.000000  0.000000  0.000000  -19.215404  2.356976  4.612913  49.253102  0.977966  -13.869197  28.400750  27.361786  -11.329698  23.614153  116.175522
0.253025  0.000000  0.000000  0.000000  -22.958864  10.546741  4.612913  46.408753  -2.788759  -1.556419  24.354209  41.013364  -14.973252  20.141756  117.192987
0.253381  0.000000  0.000000  0.000000  -40.877365  -14.845211  4.612913  56.985302  -14.052249  -2.892436  26.924748  27.143654  -16.278393  13.468795  128.296398
0.253737  0.000000  0.000000  0.000000  -18.965880  -2.526310  4.612913  64.011425  28.284258  0.023643  25.334183  37.127454  -16.625689  26.254240  134.294905
0.254093  0.000000  0.000000  0.000000  -31.100349  -0.214237  12.112913  54.931823  0.841126  -10.753989  27.531176  31.082839  -14.938187  20.624834  125.097283
0.254448  0.000000  0.000000  0.000000  -28.676548  -12.856617  12.112913  56.004978  -13.126393  -10.286572  33.014155  41.044803  -24.651152  25.108071  134.783657
0.254804  0.000000  0.000000  0.000000  -45.573086  -3.484297  12.112913  51.451894  5.176222  -19.128127  31.338283  28.831086  -5.458310  24.405363  115.344693
0.255160  0.000000  0.000000  0.000000  -35.094906  12.479437  12.112913  46.104491  15.980793  -10.663741  18.009424  32.698158  -6.584000  12.696359  124.472653
0.255516  0.000000  0.000000  0.000000  -47.845556  -0.473337  12.112913  55.924285  13.791996  -13.731347  21.221276  31.178423  -20.927939  24.778359  130.856167
0.255872  0.000000  0.000000  0.000000  -43.189805  6.235570  12.112913  46.535531  -20.772588  -6.445289  27.611371  38.186458  -5.766760  24.634458  120.637853
0.256228  0.000000  0.000000  0.000000  -47.626056  5.475197  12.112913  55.075308  13.004131  -9.314151  25.490403  33.380774  -12.149727  18.232641  116.964274
0.256584  0.000000  0.000000  0.000000  -50.685814  -2.607694  12.112913  56.284678  0.766733  -13.941834  36.321497  35.537382  -8.578985  21.637108  126.578545
0.256940  0.000000  0.000000  0.000000  -23.596406  -16.907323  12.112913  59.666767  -23.947519  -2.078920  27.167366  23.627540  -20.678883  15.585191  120.539517
0.257295  0.000000  0.000000  0.000000  -28.647148  -11.126426  12.112913  58.561331  7.543551  -16.677574  32.539876  23.278854  -14.548106  27.972608  135.074435
0.257651  0.000000  0.000000  0.000000  -19.346725  -17.801585  12.112913  56.065331  -21.115891  -5.241267  34.345801  29.735814  -21.049407  28.166719  122.666515
0.258007  0.000000  0.000000  0.000000  -11.933268  3.707858  12.112913  62.398337  14.116516  -4.572488  26.749649  32.427770  -6.382971  24.425902  122.978424
0.258363  0.000000  0.000000  0.000000  -31.100349  -0.214237  19.612913  54.763703  -5.293971  -15.073322  27.531176  31.082839  -14.938187  20.624834  125.097283
0.258719  0.000000  0.000000  0.000000  -46.809725  -11.691548  19.612913  50.796879  -23.750400  -23.041548  26.339300  21.838921  -13.383092  25.487405  124.739493
0.259075  0.000000  0.000000  0.000000  -36.968707  11.216324  19.612913  46.526163  -22.184246  -5.956981  26.954092  36.341567  -6.909198  25.796472  132.857710
0.259431  0.000000  0.000000  0.000000  -11.186824  6.637140  19.612913  48.523429  -12.705304  -11.876296  27.576352  36.246001  -9.662023  28.872233  131.394975
0.259786  0.000000  0.000000  0.000000  -11.415774  -18.398444  19.612913  49.393713  -27.296684  -15.647144  29.194420  25.048821  -21.375458  12.603526  133.627173
0.260142  0.000000  0.000000  0.000000  -12.789434  -19.739455  19.612913  54.962483  -16.895787  -19.153564  26.275398  38.156364  -15.895267  14.565568  120.372397
0.260498  0.000000  0.000000  0.000000  -13.488964  8.823964  19.612913  46.223370  -17.935861  -10.700785  36.558571  35.199443  -24.849205  11.175761  134.985471
0.260854  0.000000  0.000000  0.000000  -29.954860  -9.611014  19.612913  55.650104  -19.516329  -9.132628  19.460542  32.523227  -17.159953  27.304897  117.151912
0.261210  0.000000  0.000000  0.000000  -46.546798  -19.457601  19.612913  54.969002  -27.669351  -18.544566  35.869760  30.706651  -7.163475  22.811417  124.956286
0.261566  0.000000  0.000000  0.000000  -37.886165  7.443536  19.612913  51.463725  10.303734  -13.856782  34.254672  33.578711  -13.672933  24.666125  116.786420
0.261922  0.000000  0.000000  0.000000  -25.915203  -2.019851  19.612913  61.079740  14.087101  -10.766667  19.717035  37.014143  -24.462119  12.593873  134.630216
0.262278  0.000000  0.000000  0.000000  -25.236591  1.064614  19.612913  64.362560  1.029660  -8.927585  26.287375  34.244126  -12.362856  18.874017  118.485819
0.262633  0.000000  0.000000  0.000000  -30.278232  6.951542  19.612913  49.937835  16.965156  -20.214195  19.026424  32.649797  -7.887474  22.113786  121.391568
0.262989  0.000000  0.000000  0.000000  -19.675587  10.591426  19.612913  51.190581  -20.485840  -8.841333  23.613658  24.183385  -13.877165  29.924530  119.288522
0.263345  0.000000  0.000000  0.000000  -33.955020  -10.263798  19.612913  55.420580  1.761359  -23.716177  22.811177  21.118748  -19.369762  18.341376  120.717750
0.263701  0.000000  0.000000  0.000000  -12.768859  10.301195  19.612913  50.092362  -19.409156  -6.221797  23.900899  25.807589  -7.945525  26.155492  125.496313
0.264057  0.000000  0.000000  0.000000  -27.362526  -14.993449  19.612913  54.473625  -26.232203  -15.785902  31.333302  29.393648  -8.880769  19.276231  130.762039
0.264413  0.000000  0.000000  0.000000  -42.528105  7.032274  19.612913  51.122952  6.480387  -10.875558  23.360019  40.930032  -14.088423  30.350850  120.412882
0.264769  0.000000  0.000000  0.000000  -31.100349  -0.214237  27.112913  54.122941  -11.398568  -19.479256  27.531176  31.082839  -14.938187  20.624834  125.097283
0.265125  0.000000  0.000000  0.000000  -26.106863  4.202264  27.112913  46.980603  -14.041340  -23.655692  21.707552  33.717682  -17.319323  13.392837  130.063522
0.265480  0.000000  0.000000  0.000000  -48.250814  12.435408  27.112913  50.453314  -5.327333  -15.834978  26.666757  34.897056  -15.885811  27.013140  118.720702
0.265836  0.000000  0.000000  0.000000  -49.830585  10.698699  27.112913  48.836551  -27.721640  -13.547568  21.265209  31.146666  -13.173595  23.322716  116.487129
0.266192  0.000000  0.000000  0.000000  -16.332377  14.212620  27.112913  50.174442  1.744533  -19.312749  34.320021  32.868668  -20.182436  16.417225  132.311333
0.266548  0.000000  0.000000  0.000000  -13.511957  -4.106919  27.112913  61.365958  -15.523628  -10.843489  32.866643  38.223291  -12.621944  28.997399  126.362888
0.266904  0.000000  0.000000  0.000000  -40.260910  13.768067  27.112913  44.298964  2.912005  -16.477098  21.070213  21.909864  -21.502473  14.700600  125.154337
0.267260  0.000000  0.000000  0.000000  -30.108609  -19.398495  27.112913  49.847432  -27.450346  -25.763335  28.695006  33.497029  -12.688097  25.469463  127.669358
0.267616  0.000000  0.000000  0.000000  -42.534499  -18.700362  27.112913  50.311018  -27.185078  -25.315494  32.188603  29.937804  -20.979261  16.120356  126.266837
0.267972  0.000000  0.000000  0.000000  -26.468152  -13.871396  27.112913  51.391069  -29.980649  -15.109116  32.963820  34.567706  -7.496272  19.779050  126.828230
0.268327  0.000000  0.000000  0.000000  -21.812230  2.243217  27.112913  55.133486  -4.713136  -20.333577  28.960591  38.353570  -5.952111  11.673897  133.019269
0.268683  0.000000  0.000000  0.000000  -22.662990  -4.978566  27.112913  57.614974  -14.755991  -14.324889  32.839844  37.908997  -18.892562  27.718402  130.839941
0.269039  0.000000  0.000000  0.000000  -42.787781  -5.259961  27.112913  50.490364  -30.914005  -12.773908  21.824681  40.671569  -12.673894  11.713669  119.981092
